<svg viewBox="3.5 6.1 18 13" fill="none" xmlns="http://www.w3.org/2000/svg"><path clip-rule="evenodd" d="M11.132 9.714a3.94 3.94 0 0 0 .468 4.871 3.67 3.67 0 0 0 4.735.48c.312-.214.59-.474.824-.771.23-.292.418-.615.557-.96a3.96 3.96 0 0 0 .212-2.234A3.9 3.9 0 0 0 16.9 9.13a3.7 3.7 0 0 0-1.918-1.056 3.65 3.65 0 0 0-2.167.22c-.69.296-1.276.79-1.683 1.42" stroke="#000" stroke-width="1.5" stroke-linecap="round" stroke-linejoin="round"/><path d="M17.599 13.687a.75.75 0 1 0-.884 1.212zm1.46 2.92a.75.75 0 1 0 .883-1.213zM7.5 12.75a.75.75 0 1 0 0-1.5zm-2-1.5a.75.75 0 0 0 0 1.5zm2 4.5a.75.75 0 1 0 0-1.5zm-2-1.5a.75.75 0 0 0 0 1.5zm3-4.5a.75.75 0 0 0 0-1.5zm-3-1.5a.75.75 0 0 0 0 1.5zm11.215 6.65 2.343 1.706.884-1.212-2.343-1.707zM7.5 11.25h-2v1.5h2zm0 3h-2v1.5h2zm1-6h-3v1.5h3z" fill="currentColor"/></svg>