<svg version="1.0" xmlns="http://www.w3.org/2000/svg" viewBox="0 0 64 64" xml:space="preserve"><g fill-rule="evenodd" clip-rule="evenodd" fill="#fff"><circle cx="32.003" cy="32.005" r="16.001"/><path d="M12.001 31.997c0-2.211-1.789-4-4-4H4c-2.211 0-4 1.789-4 4s1.789 4 4 4h4a4 4 0 0 0 4.001-4m.203 14.142-2.832 2.833a4 4 0 0 0 5.657 5.656l2.833-2.832a4 4 0 1 0-5.658-5.657m19.799 5.86c-2.211 0-4 1.789-4 4V60c0 2.211 1.789 4 4 4s4-1.789 4-4l-.004-4.001a3.994 3.994 0 0 0-3.996-4m19.795-5.856a3.99 3.99 0 0 0-5.653-.004 4 4 0 0 0 0 5.657l2.829 2.828c1.562 1.57 4.094 1.562 5.656 0s1.566-4.09 0-5.656zm8.208-18.146-4.009.008a3.984 3.984 0 0 0-3.992 3.992 3.99 3.99 0 0 0 3.992 4h4.001c2.219.008 4-1.789 4-4a3.99 3.99 0 0 0-3.992-4m-8.208-10.138 2.828-2.829a3.99 3.99 0 0 0 0-5.657 3.99 3.99 0 0 0-5.652-.004l-2.829 2.836a3.99 3.99 0 0 0 0 5.649c1.554 1.572 4.094 1.564 5.653.005m-19.795-5.864c2.207.016 4-1.789 4-3.992v-4c0-2.219-1.789-4-4-4a3.986 3.986 0 0 0-4 3.993l.008 4.008a3.984 3.984 0 0 0 3.992 3.991m-19.791 5.86a3.983 3.983 0 0 0 5.646-.004c1.574-1.551 1.566-4.09.008-5.649l-2.829-2.828a3.995 3.995 0 0 0-5.657 0 3.983 3.983 0 0 0-.012 5.653z"/></g></svg>